<?xml version="1.0" encoding="UTF-8"?>
<svg xmlns="http://www.w3.org/2000/svg" width="512" height="512" viewBox="0 0 512 512" fill="none">
  <rect width="512" height="512" rx="40" fill="white"></rect>
  <path fill-rule="evenodd" clip-rule="evenodd" d="M143.241 232.773L135.366 197.166C135.366 197.166 67.491 207.446 64.1356 234.106C60.7801 260.766 120.826 289.479 120.826 289.479C120.826 289.479 172.567 311.986 252.746 313.227C332.924 314.468 381.999 290.812 381.999 290.812C381.999 290.812 445.355 266.711 446.672 236.68C447.99 206.65 376.744 198.391 376.744 198.391L368.869 230.015C368.869 230.015 351.325 162.324 335.912 128.402C330.411 116.344 313.496 112.544 313.496 112.544C304.611 111.295 295.556 112.204 287.097 115.194C275.223 119.546 264.405 129.995 257.986 129.735C244.978 129.444 228.292 112.207 203.931 112.59C187.889 112.682 176.198 129.781 176.198 129.781C169.107 144.762 162.966 160.176 157.812 175.93C151.987 194.616 147.124 213.589 143.241 232.773Z" fill="black"></path>
  <path fill-rule="evenodd" clip-rule="evenodd" d="M139.258 350.168L136.607 327.752C136.607 327.752 163.359 321.287 190.724 322.436C222.455 323.845 247.521 332.977 255.412 332.977C263.303 332.977 292.705 323.784 325.309 323.784C342.218 324.019 359.042 326.22 375.442 330.342L371.458 350.076H364.901C364.901 350.076 366.433 376.828 354.359 392.333C344.354 405.004 320.085 406.858 320.085 406.858C320.085 406.858 298.021 407.486 281.78 394.999C266.367 383.125 263.961 358.043 256.699 358.043C249.436 358.043 244.916 382.941 227.588 396.348C213.584 407.165 193.298 406.889 193.298 406.889C193.298 406.889 168.139 405.357 157.675 392.364C145.816 377.747 148.482 350.107 148.482 350.107H139.258V350.168Z" fill="black"></path>
</svg>
